<svg id="Layer_1" height="512" viewBox="0 0 128 128" width="512" xmlns="http://www.w3.org/2000/svg" data-name="Layer 1"><path d="m61.387 96.176v17.991h-18.752v-55.167a54.666 54.666 0 0 0 -6.885 11c-2.438 5.062-3.977 5.537-7.145 4.434a6.292 6.292 0 0 1 -3.98-8.352c1.933-6 7.875-19.832 22.239-28.4l15.636-4.847h3l15.636 4.845c14.364 8.57 20.306 22.4 22.239 28.4a6.294 6.294 0 0 1 -3.98 8.353c-3.168 1.1-4.708.628-7.145-4.435a54.666 54.666 0 0 0 -6.885-11v55.17h-18.752v-17.992a2.614 2.614 0 0 0 -2.613-2.614 2.614 2.614 0 0 0 -2.613 2.614z" fill="#e8e8e8"/><path d="m81.669 24.169v11.231a4.361 4.361 0 0 1 -2.551 3.968 43.613 43.613 0 0 1 -6.906 2.475 32.658 32.658 0 0 1 -8.212 1.157 32.658 32.658 0 0 1 -8.212-1.159 43.613 43.613 0 0 1 -6.906-2.475 4.361 4.361 0 0 1 -2.551-3.966v-10.92a17.959 17.959 0 0 1 17.805-17.98 17.671 17.671 0 0 1 17.533 17.669z" fill="#4482c3"/><path d="m75.67 24.17v10.16a38.213 38.213 0 0 1 -4.99 1.71 26.755 26.755 0 0 1 -6.68.96 26.755 26.755 0 0 1 -6.68-.96 38.213 38.213 0 0 1 -4.99-1.71v-9.85c.05-4.67 5.38-8.6 11.68-8.6a14.127 14.127 0 0 1 8.24 2.47 7.5 7.5 0 0 1 3.42 5.82z" fill="#e8e8e8"/><path d="m49.917 109.833h11.47a0 0 0 0 1 0 0v11.667a0 0 0 0 1 0 0h-17.8a2.667 2.667 0 0 1 -2.667-2.667 9 9 0 0 1 9-9z" fill="#4482c3"/><path d="m69.28 109.833h17.8a0 0 0 0 1 0 0v11.667a0 0 0 0 1 0 0h-11.467a9 9 0 0 1 -9-9 2.667 2.667 0 0 1 2.667-2.667z" fill="#4482c3" transform="matrix(-1 0 0 -1 153.697 231.333)"/><path d="m52.208 60.998h23.583v17.083h-23.583z" fill="#4482c3"/><g fill="#2d1d40"><path d="m42.63 98.292a1.75 1.75 0 0 0 1.75-1.75v-3.334a1.75 1.75 0 0 0 -3.5 0v3.334a1.75 1.75 0 0 0 1.75 1.75z"/><path d="m105.036 65.544c-1.822-5.663-7.567-19.544-21.825-28.612a6.082 6.082 0 0 0 .208-1.534v-11.229a1.75 1.75 0 1 0 -3.5 0v11.231a2.618 2.618 0 0 1 -1.527 2.376 41.559 41.559 0 0 1 -6.626 2.375 30.764 30.764 0 0 1 -7.766 1.099 30.764 30.764 0 0 1 -7.766-1.1 41.559 41.559 0 0 1 -6.626-2.375 2.618 2.618 0 0 1 -1.527-2.375v-10.92a16.468 16.468 0 0 1 4.866-11.6 15.629 15.629 0 0 1 11.059-4.63h.117a15.809 15.809 0 0 1 11.133 4.662 16 16 0 0 1 2.7 3.595 1.749 1.749 0 1 0 3.066-1.686 19.436 19.436 0 0 0 -16.874-10.07 19.009 19.009 0 0 0 -13.667 5.649 19.99 19.99 0 0 0 -5.9 14.085v10.915a6.082 6.082 0 0 0 .208 1.534c-14.258 9.068-20 22.949-21.824 28.61-2.032 6.286 2.241 9.587 5.065 10.539 4.3 1.512 6.649.169 9.3-5.322a59.453 59.453 0 0 1 3.554-6.345v22.751a1.75 1.75 0 0 0 3.5 0v-28.167a1.75 1.75 0 0 0 -3.084-1.142 56.163 56.163 0 0 0 -7.13 11.382c-2.184 4.523-2.945 4.254-5 3.532-1.029-.347-4.277-1.816-2.874-6.156 1.7-5.288 7.053-18.232 20.3-26.691a6.069 6.069 0 0 0 1.556 1.033 45.127 45.127 0 0 0 7.187 2.576 34.222 34.222 0 0 0 8.661 1.216 34.18 34.18 0 0 0 8.658-1.217 45.024 45.024 0 0 0 7.187-2.575 6.017 6.017 0 0 0 1.555-1.032c13.25 8.459 18.6 21.4 20.3 26.692 1.4 4.338-1.846 5.807-2.895 6.161-2.037.716-2.8.986-4.984-3.538a56.154 56.154 0 0 0 -7.121-11.383 1.75 1.75 0 0 0 -3.08 1.142v50.637a10.669 10.669 0 0 0 -5.537-1.554h-9.723v-11.903a4.37 4.37 0 0 0 -4.36-4.37 4.268 4.268 0 0 0 -3.063 1.269 4.355 4.355 0 0 0 -1.3 3.1v11.9h-9.72a10.669 10.669 0 0 0 -5.537 1.554v-7.012a1.75 1.75 0 0 0 -3.5 0v10.409a10.674 10.674 0 0 0 -1.713 5.8 4.421 4.421 0 0 0 4.416 4.417h17.8a1.75 1.75 0 0 0 1.75-1.75v-7.3c0-.01 0-.019 0-.029v-17.988a.855.855 0 0 1 .271-.626.807.807 0 0 1 .596-.244.865.865 0 0 1 .86.87v17.99.029 7.3a1.75 1.75 0 0 0 1.75 1.75h17.8a4.421 4.421 0 0 0 4.416-4.417 10.674 10.674 0 0 0 -1.713-5.8v-48.618a59.378 59.378 0 0 1 3.554 6.346c2.648 5.49 4.992 6.832 9.275 5.328 2.852-.959 7.125-4.26 5.094-10.544zm-45.4 54.206h-16.053a.917.917 0 0 1 -.916-.917 7.258 7.258 0 0 1 7.25-7.25h9.72zm24.78 0h-16.053v-8.167h9.72a7.258 7.258 0 0 1 7.25 7.25.917.917 0 0 1 -.916.917z"/><path d="m79.365 103.75a1.75 1.75 0 0 0 1.75-1.75v-16.312a1.75 1.75 0 0 0 -3.5 0v16.312a1.75 1.75 0 0 0 1.75 1.75z"/><path d="m73.277 16.933a15.945 15.945 0 0 0 -9.267-2.8c-7.345 0-13.369 4.635-13.43 10.35v9.85a1.75 1.75 0 0 0 1.067 1.611 40.082 40.082 0 0 0 5.226 1.791 28.518 28.518 0 0 0 7.127 1.015 28.531 28.531 0 0 0 7.131-1.019 40.077 40.077 0 0 0 5.222-1.79 1.75 1.75 0 0 0 1.067-1.611v-10.16c0-.016 0-.032 0-.047a9.21 9.21 0 0 0 -4.143-7.19zm.643 16.216a36.371 36.371 0 0 1 -3.689 1.2 24.98 24.98 0 0 1 -6.231.9 24.994 24.994 0 0 1 -6.229-.9 36.5 36.5 0 0 1 -3.691-1.2v-8.649c.039-3.66 4.679-6.869 9.924-6.869a12.434 12.434 0 0 1 7.222 2.139 5.827 5.827 0 0 1 2.694 4.43z"/><path d="m75.792 79.832a1.75 1.75 0 0 0 1.75-1.75v-17.082a1.75 1.75 0 0 0 -1.75-1.75h-23.584a1.75 1.75 0 0 0 -1.75 1.75v17.082a1.75 1.75 0 0 0 1.75 1.75zm-21.834-17.084h20.084v13.584h-20.084z"/></g></svg>